<mxfile host="app.diagrams.net" agent="Mozilla/5.0 (Windows NT 10.0; Win64; x64) AppleWebKit/537.36 (KHTML, like Gecko) Chrome/129.0.0.0 Safari/537.36 Edg/129.0.0.0" version="24.7.16">
  <diagram id="C5RBs43oDa-KdzZeNtuy" name="Page-1">
    <mxGraphModel dx="842" dy="510" grid="1" gridSize="10" guides="1" tooltips="1" connect="1" arrows="1" fold="1" page="1" pageScale="1" pageWidth="827" pageHeight="1169" math="0" shadow="0">
      <root>
        <mxCell id="WIyWlLk6GJQsqaUBKTNV-0" />
        <mxCell id="WIyWlLk6GJQsqaUBKTNV-1" parent="WIyWlLk6GJQsqaUBKTNV-0" />
        <mxCell id="h7xZuedNb9UHP-sqhDYE-1" value="&lt;font style=&quot;font-size: 10px;&quot;&gt;交易对账&lt;/font&gt;" style="swimlane;childLayout=stackLayout;resizeParent=1;resizeParentMax=0;startSize=20;html=1;fontSize=10;fontStyle=0;fontFamily=微软雅黑;fontColor=default;textShadow=1;align=center;" vertex="1" parent="WIyWlLk6GJQsqaUBKTNV-1">
          <mxGeometry x="230.00000000000045" y="260" width="279.99999999999955" height="350" as="geometry">
            <mxRectangle x="230.00000000000045" y="240" width="60" height="30" as="alternateBounds" />
          </mxGeometry>
        </mxCell>
        <mxCell id="h7xZuedNb9UHP-sqhDYE-2" value="&lt;font face=&quot;微软雅黑&quot; style=&quot;font-size: 10px;&quot;&gt;投顾中心&lt;/font&gt;" style="swimlane;startSize=20;html=1;fontStyle=0" vertex="1" parent="h7xZuedNb9UHP-sqhDYE-1">
          <mxGeometry y="20" width="149.99999999999955" height="330" as="geometry" />
        </mxCell>
        <mxCell id="h7xZuedNb9UHP-sqhDYE-5" value="&lt;font style=&quot;font-size: 10px;&quot;&gt;生成交易对账文件&lt;/font&gt;" style="rounded=0;whiteSpace=wrap;html=1;" vertex="1" parent="h7xZuedNb9UHP-sqhDYE-2">
          <mxGeometry x="35" y="50" width="80" height="30" as="geometry" />
        </mxCell>
        <mxCell id="h7xZuedNb9UHP-sqhDYE-10" value="&lt;span style=&quot;font-size: 10px;&quot;&gt;文件同步&lt;/span&gt;" style="text;html=1;align=center;verticalAlign=middle;whiteSpace=wrap;rounded=0;" vertex="1" parent="h7xZuedNb9UHP-sqhDYE-2">
          <mxGeometry x="89.99999999999955" y="100" width="60" height="30" as="geometry" />
        </mxCell>
        <mxCell id="h7xZuedNb9UHP-sqhDYE-3" value="工银瑞信" style="swimlane;startSize=20;html=1;fontSize=10;fontStyle=0" vertex="1" parent="h7xZuedNb9UHP-sqhDYE-1">
          <mxGeometry x="149.99999999999955" y="20" width="130" height="330" as="geometry" />
        </mxCell>
        <mxCell id="h7xZuedNb9UHP-sqhDYE-7" value="&lt;span style=&quot;font-size: 10px;&quot;&gt;接收对账文件&lt;/span&gt;" style="rounded=0;whiteSpace=wrap;html=1;" vertex="1" parent="h7xZuedNb9UHP-sqhDYE-3">
          <mxGeometry x="25.000000000000455" y="120" width="80" height="30" as="geometry" />
        </mxCell>
        <mxCell id="h7xZuedNb9UHP-sqhDYE-9" style="edgeStyle=orthogonalEdgeStyle;rounded=0;orthogonalLoop=1;jettySize=auto;html=1;entryX=0;entryY=0.5;entryDx=0;entryDy=0;" edge="1" parent="h7xZuedNb9UHP-sqhDYE-1" source="h7xZuedNb9UHP-sqhDYE-5" target="h7xZuedNb9UHP-sqhDYE-7">
          <mxGeometry relative="1" as="geometry">
            <Array as="points">
              <mxPoint x="70" y="155" />
            </Array>
          </mxGeometry>
        </mxCell>
      </root>
    </mxGraphModel>
  </diagram>
</mxfile>
